<svg width="45" height="45" viewBox="0 0 45 45" fill="none" xmlns="http://www.w3.org/2000/svg">
<path d="M22.5 0C10.095 0 0 10.093 0 22.5013C0 34.907 10.095 45 22.5 45C34.905 45 45 34.907 45 22.5013C45 10.093 34.905 0 22.5 0ZM33.7437 31.7094L29.1221 36.3317H22.3336C11.2563 36.3317 11.2563 28.3098 11.2563 26.1949V9.88773H16.705V25.7539C16.705 27.6768 17.3063 29.079 18.1874 30.0813C19.132 31.144 20.6974 31.7012 22.5002 31.7205C22.5251 31.7202 30.9119 31.7184 30.9119 31.7184L28.2954 28.2287V9.88773H33.7437V31.7094Z" fill="#A51890"/>
<path d="M28.2959 28.2287L30.9124 31.7184C30.9124 31.7184 22.5256 31.7202 22.5007 31.7204C20.6979 31.7012 19.1325 31.144 18.1879 30.0813C17.3067 29.079 16.7055 27.6767 16.7055 25.7539V9.8877H11.2568V26.1949C11.2568 28.3098 11.2568 36.3317 22.3341 36.3317H29.1226L33.7442 31.7093V9.8877H28.2959V28.2287Z" fill="white"/>
</svg>
