<svg width="147" height="37" viewBox="0 0 147 37" fill="none" xmlns="http://www.w3.org/2000/svg">
<path d="M142.367 7.95483C142.367 7.95483 137.686 23.394 137.718 23.394L134.107 7.95484H130.427L126.797 23.4502C126.828 23.4502 122.166 7.95484 122.166 7.95484H117.534L124.926 29.2291L128.66 29.2284L132.267 15.6378L135.834 29.2335L139.606 29.2284L147 7.95484L142.367 7.95483Z" fill="white"/>
<path d="M70.0894 13.21C70.0894 11.9921 71.287 11.287 72.8313 11.287C74.5329 11.287 76.0138 11.8636 77.7786 12.8255L77.8415 9.04353C76.6441 8.33794 74.8162 7.76135 72.6107 7.76135C68.0411 7.76135 65.5518 10.582 65.5518 13.7866C65.5518 15.4213 66.0876 16.6076 66.8757 17.5369C69.3964 20.4532 74.4382 20.9344 74.4382 23.7226C74.4382 25.3253 72.7368 25.9021 71.2241 25.9021C69.3335 25.9021 67.7577 25.1332 66.4657 24.2674L64.7959 27.4403C66.2768 28.4345 68.4197 29.4278 71.4133 29.4278C75.6675 29.4278 79.0079 27.0236 79.0079 23.1779C79.0079 16.543 70.0894 16.8636 70.0894 13.21Z" fill="white"/>
<path d="M88.9914 7.95483H82.0586V29.2291H88.6114C95.8289 29.2291 100.609 24.9676 100.609 18.4145C100.609 12.0548 96.4301 7.95483 88.9914 7.95483ZM88.8232 25.5976H86.4597V14.5187L84.3995 11.7163L88.7598 11.7146C93.5182 11.7146 95.9764 14.4142 95.9764 18.5918C95.9764 22.2878 93.9597 25.5976 88.8232 25.5976Z" fill="white"/>
<path d="M112.419 7.95483H108.694L100.774 29.2291H105.092L106.164 26.0027L104.717 24.0345L114.249 24.0394L116.027 29.2291H120.659L112.419 7.95483ZM107.994 20.4939L110.538 13.2057L113.035 20.4939H107.994Z" fill="white"/>
<path d="M57.6306 22.7101L59.6886 25.5176C59.6886 25.5176 53.092 25.519 53.0724 25.5192C51.6544 25.5038 50.4231 25.0555 49.6801 24.2006C48.9871 23.3942 48.5142 22.2661 48.5142 20.7191V7.95471H44.2285V21.0739C44.2285 22.7754 44.2285 29.229 52.9414 29.229H58.2809L61.916 25.5103V7.95471H57.6306V22.7101Z" fill="white"/>
<path d="M17.6974 0C7.94024 0 0 8.11987 0 18.1024C0 28.0829 7.94024 36.2027 17.6974 36.2027C27.4545 36.2027 35.3947 28.0829 35.3947 18.1024C35.3947 8.11987 27.4545 0 17.6974 0ZM26.5411 25.5103L22.906 29.229H17.5664C8.85361 29.229 8.85361 22.7754 8.85361 21.074V7.95472H13.1393V20.7191C13.1393 22.2661 13.6122 23.3942 14.3052 24.2006C15.0482 25.0555 16.2795 25.5038 17.6975 25.5193C17.7171 25.519 24.3137 25.5176 24.3137 25.5176L22.2557 22.7101V7.95472H26.5411V25.5103Z" fill="white"/>
</svg>
